<svg width="200" height="200" viewBox="0 0 200 200" fill="none" xmlns="http://www.w3.org/2000/svg">
<ellipse cx="100.625" cy="180" rx="41.875" ry="10" fill="#C1C9BE"/>
<path d="M80 179.375C73.75 180.625 71.25 156.25 71.25 156.25L88.125 156.25C88.125 156.25 86.25 178.125 80 179.375Z" fill="#9CD49E" stroke="#2D4E30" stroke-width="4.375"/>
<path d="M120 179.375C113.75 180.625 111.25 156.25 111.25 156.25L128.125 156.25C128.125 156.25 126.25 178.125 120 179.375Z" fill="#9CD49E" stroke="#2D4E30" stroke-width="4.375"/>
<path d="M155.625 85.6251C156.22 84.7718 181.375 111.46 176.25 116.25C171.136 121.029 155.658 107.03 155.625 107.497V107.5C155.625 107.499 155.625 107.498 155.625 107.497V85.6251Z" fill="#9CD49E" stroke="#2D4E30" stroke-width="4.375"/>
<path d="M45.6882 85.625C45.0928 84.7717 24.8749 113.96 30 118.75C35.1089 123.524 45.6547 107.074 45.6882 107.496V107.5C45.6883 107.498 45.6883 107.497 45.6882 107.496V85.625Z" fill="#9CD49E" stroke="#2D4E30" stroke-width="4.375"/>
<rect x="43.4375" y="43.4375" width="113.125" height="113.125" rx="15.3125" fill="#9CD49E" stroke="#2D4E30" stroke-width="4.375"/>
<rect x="52.1875" y="52.1875" width="95.625" height="95.625" rx="6.5625" fill="#B7F1B9" stroke="#376A3E" stroke-width="1.875"/>
<path d="M144.375 94.375L55 106.25V141.25C55 144.702 57.7982 147.5 61.25 147.5H141.875C145.327 147.5 148.125 144.702 148.125 141.25V58.125C145.591 53.1716 143.699 52.4298 140 52.5L142.629 54.7534C143.737 55.7033 144.375 57.0901 144.375 58.5497V94.375Z" fill="#9CD49E"/>
<rect x="52.1875" y="52.1875" width="95.625" height="95.625" rx="6.5625" stroke="#2D4E30" stroke-width="1.875"/>
<circle cx="65" cy="135" r="8.75" fill="#9CD49E"/>
<path d="M66.2501 131.875L63.7501 138.125H58.1251C57.2435 136.46 57.2666 135.071 58.1251 131.875H66.2501Z" fill="#9CD49F"/>
<path d="M71.875 131.875C66.5126 131.331 61.875 131.875 58.125 132.5L56.875 135L58.125 138.125C63.7981 138.421 66.796 138.412 71.875 138.125C72.9825 135.615 73.1464 134.237 71.875 131.875Z" stroke="#2D4E30"/>
<circle cx="65" cy="135" r="7.8125" stroke="#2D4E30" stroke-width="1.875"/>
<circle cx="127.5" cy="127.5" r="15.3125" fill="#9CD49E" stroke="#2D4E30" stroke-width="1.875"/>
<circle cx="126.25" cy="126.25" r="12.5" fill="#9CD49F"/>
<rect x="119.125" y="119.125" width="18" height="5.5" rx="0.875" fill="#B8CCB6" stroke="#3A4B3A" stroke-width="0.75"/>
<path d="M119.375 119.375H130L127.5 124.375H119.375V119.375Z" fill="#D1E5CE"/>
<rect x="119.125" y="119.125" width="18" height="5.5" rx="0.875" stroke="#3A4B3A" stroke-width="0.75"/>
<circle cx="121.875" cy="129.375" r="1.5" fill="#EBEFE7" stroke="#2D4E30" stroke-width="0.75"/>
<circle cx="121.875" cy="134.375" r="1.5" fill="#EBEFE7" stroke="#2D4E30" stroke-width="0.75"/>
<circle cx="128.125" cy="129.375" r="1.5" fill="#EBEFE7" stroke="#2D4E30" stroke-width="0.75"/>
<circle cx="128.125" cy="134.375" r="1.5" fill="#EBEFE7" stroke="#2D4E30" stroke-width="0.75"/>
<circle cx="134.375" cy="129.375" r="1.5" fill="#EBEFE7" stroke="#2D4E30" stroke-width="0.75"/>
<circle cx="134.375" cy="134.375" r="1.5" fill="#EBEFE7" stroke="#2D4E30" stroke-width="0.75"/>
<path d="M75.4609 17.8281C65.969 15.9077 60.4049 13.2178 51.7898 8.35833C50.6908 52.7203 105.971 76.4792 126.011 64.0584C146.051 51.6377 134.471 28.5657 120.664 24.2944C106.857 20.0231 91.9448 18.2604 73.7542 9.88438L75.4609 17.8281Z" fill="#9CD49F"/>
<path d="M134.207 36.9731C116.726 48.9901 79.0106 43.2753 52.6775 10.4297C50.6303 33.0131 66.2713 52.1434 90.8006 62.4212C100.4 66.4432 111.336 68.0819 121.088 64.4455C132.175 60.311 137.371 51.6359 134.207 36.9731Z" fill="#B7F1B9"/>
<path d="M135.412 44.1884C119.918 63.847 75.9872 61.1824 53.8833 17.645C55.4029 38.0969 67.6208 53.4384 90.736 62.5958C100.412 66.429 111.241 68.02 121.216 65.0513C130.945 62.1561 134.98 56.1783 135.412 44.1884Z" fill="#376A3E"/>
<path d="M75.4609 17.8281C65.969 15.9077 60.4049 13.2178 51.7898 8.35833C50.6908 52.7203 105.971 76.4792 126.011 64.0584C146.051 51.6377 134.471 28.5657 120.664 24.2944C106.857 20.0231 91.9448 18.2604 73.7542 9.88438L75.4609 17.8281Z" stroke="#2D4E30" stroke-width="4.375"/>
<rect x="75" y="78.75" width="16.25" height="21.25" rx="8.125" fill="#2D4E30"/>
<circle cx="85.625" cy="84.375" r="2.5" fill="#EBEFE7"/>
<rect x="108.75" y="78.75" width="16.25" height="21.25" rx="8.125" fill="#2D4E30"/>
<circle cx="119.375" cy="84.375" r="2.5" fill="#EBEFE7"/>
<path d="M105.312 111.25C105.312 113.846 104.587 116.156 103.464 117.79C102.337 119.428 100.876 120.312 99.375 120.312C97.8741 120.312 96.4127 119.428 95.2862 117.79C94.1626 116.156 93.4375 113.846 93.4375 111.25C93.4375 108.654 94.1626 106.344 95.2862 104.71C96.4127 103.072 97.8741 102.187 99.375 102.187C100.876 102.187 102.337 103.072 103.464 104.71C104.587 106.344 105.312 108.654 105.312 111.25Z" fill="#FE5572" stroke="#2D4E30" stroke-width="1.875"/>
</svg>
