<svg width="160" height="160" viewBox="0 0 160 160" fill="none" xmlns="http://www.w3.org/2000/svg">
<ellipse cx="80.5" cy="144" rx="33.5" ry="8" fill="#C1C9BE"/>
<path d="M16 71C15.0001 76 34.5001 88.5 34.5001 88.5V74C34.5001 74 16.9999 66 16 71Z" fill="#9CD49E" stroke="#2D4E30" stroke-width="3.5"/>
<path d="M64 143.5C59 144.5 57 125 57 125L70.5 125C70.5 125 69 142.5 64 143.5Z" fill="#9CD49E" stroke="#2D4E30" stroke-width="3.5"/>
<path d="M96 143.5C91 144.5 89 125 89 125L102.5 125C102.5 125 101 142.5 96 143.5Z" fill="#9CD49E" stroke="#2D4E30" stroke-width="3.5"/>
<path d="M124.5 68.5C124.976 67.8174 145.1 89.1684 141 93C136.909 96.8234 124.527 85.624 124.5 85.9975V86.0001C124.5 85.9991 124.5 85.9983 124.5 85.9975V68.5Z" fill="#9CD49E" stroke="#2D4E30" stroke-width="3.5"/>
<rect x="34.75" y="34.75" width="90.5" height="90.5" rx="12.25" fill="#9CD49E" stroke="#2D4E30" stroke-width="3.5"/>
<rect x="41.75" y="41.75" width="76.5" height="76.5" rx="5.25" fill="#B7F1B9" stroke="#376A3E" stroke-width="1.5"/>
<path d="M115.5 75.5L44 85V113C44 115.761 46.2386 118 49 118H113.5C116.261 118 118.5 115.761 118.5 113V46.5C116.473 42.5373 114.959 41.9438 112 42L114.103 43.8027C114.99 44.5626 115.5 45.672 115.5 46.8397V75.5Z" fill="#9CD49E"/>
<rect x="41.75" y="41.75" width="76.5" height="76.5" rx="5.25" stroke="#2D4E30" stroke-width="1.5"/>
<circle cx="52" cy="108" r="7" fill="#9CD49E"/>
<path d="M53.0001 105.5L51.0001 110.5H46.5001C45.7948 109.168 45.8133 108.057 46.5001 105.5H53.0001Z" fill="#9CD49F"/>
<path d="M57.5 105.5C53.2101 105.065 49.5 105.5 46.5 106L45.5 108L46.5 110.5C51.0384 110.737 53.4368 110.729 57.5 110.5C58.386 108.492 58.5171 107.389 57.5 105.5Z" stroke="#2D4E30" stroke-width="0.8"/>
<circle cx="52" cy="108" r="6.25" stroke="#2D4E30" stroke-width="1.5"/>
<circle cx="102" cy="102" r="12.25" fill="#9CD49E" stroke="#2D4E30" stroke-width="1.5"/>
<circle cx="101" cy="101" r="10" fill="#9CD49F"/>
<rect x="95.3" y="95.3" width="14.4" height="4.4" rx="0.7" fill="#B8CCB6" stroke="#3A4B3A" stroke-width="0.6"/>
<path d="M95.5 95.5H104L102 99.5H95.5V95.5Z" fill="#D1E5CE"/>
<rect x="95.3" y="95.3" width="14.4" height="4.4" rx="0.7" stroke="#3A4B3A" stroke-width="0.6"/>
<circle cx="97.5" cy="103.5" r="1.2" fill="#EBEFE7" stroke="#2D4E30" stroke-width="0.6"/>
<circle cx="97.5" cy="107.5" r="1.2" fill="#EBEFE7" stroke="#2D4E30" stroke-width="0.6"/>
<circle cx="102.5" cy="103.5" r="1.2" fill="#EBEFE7" stroke="#2D4E30" stroke-width="0.6"/>
<circle cx="102.5" cy="107.5" r="1.2" fill="#EBEFE7" stroke="#2D4E30" stroke-width="0.6"/>
<circle cx="107.5" cy="103.5" r="1.2" fill="#EBEFE7" stroke="#2D4E30" stroke-width="0.6"/>
<circle cx="107.5" cy="107.5" r="1.2" fill="#EBEFE7" stroke="#2D4E30" stroke-width="0.6"/>
<path d="M58.5 68C58.5563 59.7177 71.0508 59.8697 71 68" stroke="#2D4E30" stroke-width="3"/>
<path d="M89 68C89.0563 59.7177 101.551 59.8697 101.5 68" stroke="#2D4E30" stroke-width="3"/>
<path d="M97.0952 78H62.5952C60.9016 78 59.5438 79.401 59.5967 81.0937L59.8075 87.8386C59.9332 91.8613 61.0838 95.8961 63.8944 98.7769C73.244 108.36 85.4248 108.722 95.7212 98.965C99.1382 95.727 100.417 90.9422 100.266 86.2371L100.094 80.9033C100.041 79.2849 98.7144 78 97.0952 78Z" fill="#2D4E30"/>
<path d="M65.9999 88C64.5583 84.9823 63.926 83.2207 65.4999 79H93.9999C95.9715 82.4326 95.8388 84.4087 93.9999 88C96.4998 91.1216 96.5742 93.712 93.9999 100C82.6664 107.008 76.5389 106.82 65.9999 100C63.976 94.2465 63.3643 91.2963 65.9999 88Z" fill="white"/>
<path d="M84.0001 91C85.9186 88.2209 86.1286 83.4843 84 79H93.9999C95.9715 82.4326 95.8387 84.4087 93.9999 88C96.4998 91.1216 96.5742 93.712 93.9999 100C82.6664 107.008 86 104 84.5 104C86.9746 99.465 86.1744 95.599 84.0001 91Z" fill="#E0E4DB"/>
<path d="M62.5952 79H97.0952C98.1747 79 99.0594 79.8566 99.0942 80.9355L99.2662 86.2694C99.4123 90.7972 98.1754 95.2617 95.0333 98.2392C90.0339 102.977 84.6555 105.189 79.4653 105.124C74.2763 105.059 69.1353 102.717 64.6101 98.0786C62.0343 95.4384 60.928 91.6818 60.807 87.8073L60.5962 81.0625C60.5609 79.934 61.4662 79 62.5952 79Z" stroke="#2D4E30" stroke-width="2"/>
<path d="M58.5 21C50.7537 20.8724 45.9849 19.5673 38.5 17C44.0994 52.0561 91.046 62.6904 105 50C118.954 37.3096 106.483 20.8481 95 19.5C83.5166 18.1519 71.5295 18.9382 56 15L58.5 21Z" fill="#9CD49F"/>
<path d="M107.5 27.5C95.5 39.5 65 40.5 39.5 18.5C41.1803 36.5629 56.2712 49.3321 77.064 53.8426C85.2008 55.6078 94.0423 55.3033 101.183 51.0219C109.302 46.1541 112.126 38.5729 107.5 27.5Z" fill="#B7F1B9"/>
<path d="M109.5 33C100.176 50.7215 65.2311 55.0266 41.5 24C45.6754 39.8664 57.5216 50.1541 77.0387 53.9894C85.2086 55.5948 93.9589 55.2684 101.373 51.4796C108.603 47.7848 110.907 42.4946 109.5 33Z" fill="#376A3E"/>
<path d="M58.5 21C50.7537 20.8724 45.9849 19.5673 38.5 17C44.0994 52.0561 91.046 62.6904 105 50C118.954 37.3096 106.483 20.8481 95 19.5C83.5166 18.1519 71.5295 18.9382 56 15L58.5 21Z" stroke="#2D4E30" stroke-width="3.5"/>
</svg>
